<mxfile host="app.diagrams.net" modified="2024-03-28T11:39:35.629Z" agent="Mozilla/5.0 (Windows NT 10.0; Win64; x64) AppleWebKit/537.36 (KHTML, like Gecko) Chrome/121.0.0.0 Safari/537.36 OPR/107.0.0.0" version="24.2.0" etag="9tIvSLtx1Mm8rrpnz5iJ" type="github">
  <diagram name="Strona-1" id="Rq5_nLYTzUe3j2mH8-l8">
    <mxGraphModel>
      <root>
        <mxCell id="0" />
        <mxCell id="1" parent="0" />
      </root>
    </mxGraphModel>
  </diagram>
</mxfile>
